<svg height="700" viewBox="0 0 700.00002 700.00003" width="700" xmlns="http://www.w3.org/2000/svg"><path d="m800.96368 178.23395h663.16962v331.58481h-663.16962z" fill="#1dd15d" fill-rule="evenodd" stroke-width=".688596"/><g fill="#1dd15d" transform="matrix(2.0986059 0 0 2.0986059 88.303844 270.04312)"><path d="m245.2 55.8c-2.3 0-4.1-1.9-4.1-4.1 0-2.3 1.8-4.2 4.2-4.2 2.3 0 4.1 1.9 4.1 4.1 0 2.3-1.8 4.2-4.2 4.2m.1-7.9c-2.1 0-3.7 1.7-3.7 3.8s1.6 3.7 3.7 3.7 3.7-1.7 3.7-3.8c0-2-1.6-3.7-3.7-3.7m.9 4.2 1.2 1.6h-1l-1.1-1.5h-.9v1.5h-.8v-4.4h1.9c1 0 1.7.5 1.7 1.4 0 .7-.4 1.2-1 1.4m-.7-2h-1.1v1.4h1.1c.5 0 .9-.3.9-.7-.1-.5-.4-.7-.9-.7"/><path d="m38.1 0c-21.1 0-38.1 17.1-38.1 38.1 0 21.1 17.1 38.1 38.1 38.1 21.1 0 38.1-17.1 38.1-38.1 0-21.1-17.1-38.1-38.1-38.1m17.5 55c-.7 1.1-2.1 1.5-3.3.8-9-5.5-20.2-6.7-33.5-3.7-1.3.3-2.6-.5-2.8-1.8-.3-1.3.5-2.6 1.8-2.8 14.5-3.3 27-1.9 37 4.2 1.1.7 1.5 2.1.8 3.3m4.6-10.4c-.9 1.4-2.7 1.8-4.1 1-10.2-6.3-25.9-8.1-38-4.4-1.6.5-3.2-.4-3.7-2s.4-3.2 2-3.7c13.8-4.2 31.1-2.2 42.8 5.1 1.5.8 1.9 2.6 1 4m.4-10.8c-12.3-7.3-32.6-8-44.3-4.4-1.9.6-3.9-.5-4.4-2.4-.6-1.9.5-3.9 2.4-4.4 13.5-4.1 35.9-3.3 50 5.1 1.7 1 2.3 3.2 1.2 4.9-1 1.6-3.2 2.2-4.9 1.2"/><path d="m103.7 35.2c-6.6-1.6-7.8-2.7-7.8-5 0-2.2 2.1-3.7 5.1-3.7s5.9 1.1 9 3.4c.1.1.2.1.3.1s.2-.1.3-.2l3.2-4.5c.1-.2.1-.4-.1-.6-3.7-2.9-7.8-4.4-12.6-4.4-7.1 0-12.1 4.3-12.1 10.4 0 6.5 4.3 8.9 11.7 10.7 6.3 1.5 7.4 2.7 7.4 4.8 0 2.4-2.2 3.9-5.6 3.9-3.8 0-7-1.3-10.5-4.3-.1-.1-.2-.1-.3-.1s-.2.1-.3.2l-3.6 4.3c-.2.2-.1.4 0 .6 4.1 3.6 9.1 5.6 14.5 5.6 7.7 0 12.6-4.2 12.6-10.7.1-5.6-3.2-8.6-11.2-10.5"/><path d="m132.3 28.7c-3.3 0-6 1.3-8.3 4v-3c0-.2-.2-.4-.4-.4h-5.9c-.2 0-.4.2-.4.4v33.5c0 .2.2.4.4.4h5.9c.2 0 .4-.2.4-.4v-10.6c2.2 2.5 5 3.8 8.3 3.8 6.2 0 12.4-4.7 12.4-13.8 0-9.2-6.2-13.9-12.4-13.9m5.6 13.8c0 4.6-2.8 7.8-6.9 7.8-4 0-7.1-3.4-7.1-7.8 0-4.5 3-7.8 7.1-7.8 4 0 6.9 3.3 6.9 7.8"/><path d="m160.7 28.7c-7.9 0-14.2 6.1-14.2 13.9 0 7.7 6.2 13.8 14.1 13.8 8 0 14.2-6.1 14.2-13.9.1-7.7-6.1-13.8-14.1-13.8m0 21.7c-4.2 0-7.4-3.4-7.4-7.9s3.1-7.8 7.3-7.8c4.3 0 7.5 3.4 7.5 7.9s-3.1 7.8-7.4 7.8"/><path d="m191.8 29.2h-6.5v-6.6c0-.2-.2-.4-.4-.4h-5.9c-.2 0-.4.2-.4.4v6.6h-2.8c-.2 0-.4.2-.4.4v5.1c0 .2.2.4.4.4h2.8v13.1c0 5.3 2.6 8 7.8 8 2.1 0 3.9-.4 5.5-1.4.1-.1.2-.2.2-.4v-4.8c0-.1-.1-.3-.2-.4s-.3-.1-.4 0c-1.1.6-2.2.8-3.5.8-1.9 0-2.7-.9-2.7-2.8v-12.1h6.5c.2 0 .4-.2.4-.4v-5.1c.1-.2-.1-.4-.4-.4"/><path d="m214.4 29.2v-.8c0-2.4.9-3.5 3-3.5 1.2 0 2.2.2 3.3.6.1 0 .3 0 .4-.1s.2-.2.2-.4v-5c0-.2-.1-.4-.3-.4-1.2-.3-2.7-.7-4.9-.7-5.4 0-8.3 3.1-8.3 8.9v1.2h-2.8c-.2 0-.4.2-.4.4v5.1c0 .2.2.4.4.4h2.8v20.2c0 .2.2.4.4.4h5.9c.2 0 .4-.2.4-.4v-20h5.5l8.4 20.2c-1 2.1-1.9 2.5-3.2 2.5-1 0-2.1-.3-3.2-.9-.1-.1-.2-.1-.3 0-.1 0-.2.1-.3.2l-2 4.4c-.1.2 0 .4.2.6 2.1 1.1 4 1.6 6.3 1.6 4.4 0 6.8-2 8.9-7.5l10.2-26.4c.1-.1 0-.3 0-.4-.1-.1-.2-.2-.4-.2h-6.1c-.2 0-.3.1-.4.3l-6.3 18-6.9-18c-.1-.2-.2-.3-.4-.3z"/><path d="m201.3 29.2h-5.9c-.2 0-.4.2-.4.4v25.7c0 .2.2.4.4.4h5.9c.2 0 .4-.2.4-.4v-25.7c.1-.2-.1-.4-.4-.4"/><path d="m198.4 17.5c-2.3 0-4.2 1.9-4.2 4.2s1.9 4.2 4.2 4.2 4.2-1.9 4.2-4.2-1.9-4.2-4.2-4.2"/></g><g fill="#fff" transform="matrix(2.0986059 0 0 2.0986059 870.85233 264.06947)"><path d="m245.2 55.8c-2.3 0-4.1-1.9-4.1-4.1 0-2.3 1.8-4.2 4.2-4.2 2.3 0 4.1 1.9 4.1 4.1 0 2.3-1.8 4.2-4.2 4.2m.1-7.9c-2.1 0-3.7 1.7-3.7 3.8s1.6 3.7 3.7 3.7 3.7-1.7 3.7-3.8c0-2-1.6-3.7-3.7-3.7m.9 4.2 1.2 1.6h-1l-1.1-1.5h-.9v1.5h-.8v-4.4h1.9c1 0 1.7.5 1.7 1.4 0 .7-.4 1.2-1 1.4m-.7-2h-1.1v1.4h1.1c.5 0 .9-.3.9-.7-.1-.5-.4-.7-.9-.7"/><path d="m38.1 0c-21.1 0-38.1 17.1-38.1 38.1 0 21.1 17.1 38.1 38.1 38.1 21.1 0 38.1-17.1 38.1-38.1 0-21.1-17.1-38.1-38.1-38.1m17.5 55c-.7 1.1-2.1 1.5-3.3.8-9-5.5-20.2-6.7-33.5-3.7-1.3.3-2.6-.5-2.8-1.8-.3-1.3.5-2.6 1.8-2.8 14.5-3.3 27-1.9 37 4.2 1.1.7 1.5 2.1.8 3.3m4.6-10.4c-.9 1.4-2.7 1.8-4.1 1-10.2-6.3-25.9-8.1-38-4.4-1.6.5-3.2-.4-3.7-2s.4-3.2 2-3.7c13.8-4.2 31.1-2.2 42.8 5.1 1.5.8 1.9 2.6 1 4m.4-10.8c-12.3-7.3-32.6-8-44.3-4.4-1.9.6-3.9-.5-4.4-2.4-.6-1.9.5-3.9 2.4-4.4 13.5-4.1 35.9-3.3 50 5.1 1.7 1 2.3 3.2 1.2 4.9-1 1.6-3.2 2.2-4.9 1.2"/><path d="m103.7 35.2c-6.6-1.6-7.8-2.7-7.8-5 0-2.2 2.1-3.7 5.1-3.7s5.9 1.1 9 3.4c.1.1.2.1.3.1s.2-.1.3-.2l3.2-4.5c.1-.2.1-.4-.1-.6-3.7-2.9-7.8-4.4-12.6-4.4-7.1 0-12.1 4.3-12.1 10.4 0 6.5 4.3 8.9 11.7 10.7 6.3 1.5 7.4 2.7 7.4 4.8 0 2.4-2.2 3.9-5.6 3.9-3.8 0-7-1.3-10.5-4.3-.1-.1-.2-.1-.3-.1s-.2.1-.3.2l-3.6 4.3c-.2.2-.1.4 0 .6 4.1 3.6 9.1 5.6 14.5 5.6 7.7 0 12.6-4.2 12.6-10.7.1-5.6-3.2-8.6-11.2-10.5"/><path d="m132.3 28.7c-3.3 0-6 1.3-8.3 4v-3c0-.2-.2-.4-.4-.4h-5.9c-.2 0-.4.2-.4.4v33.5c0 .2.2.4.4.4h5.9c.2 0 .4-.2.4-.4v-10.6c2.2 2.5 5 3.8 8.3 3.8 6.2 0 12.4-4.7 12.4-13.8 0-9.2-6.2-13.9-12.4-13.9m5.6 13.8c0 4.6-2.8 7.8-6.9 7.8-4 0-7.1-3.4-7.1-7.8 0-4.5 3-7.8 7.1-7.8 4 0 6.9 3.3 6.9 7.8"/><path d="m160.7 28.7c-7.9 0-14.2 6.1-14.2 13.9 0 7.7 6.2 13.8 14.1 13.8 8 0 14.2-6.1 14.2-13.9.1-7.7-6.1-13.8-14.1-13.8m0 21.7c-4.2 0-7.4-3.4-7.4-7.9s3.1-7.8 7.3-7.8c4.3 0 7.5 3.4 7.5 7.9s-3.1 7.8-7.4 7.8"/><path d="m191.8 29.2h-6.5v-6.6c0-.2-.2-.4-.4-.4h-5.9c-.2 0-.4.2-.4.4v6.6h-2.8c-.2 0-.4.2-.4.4v5.1c0 .2.2.4.4.4h2.8v13.1c0 5.3 2.6 8 7.8 8 2.1 0 3.9-.4 5.5-1.4.1-.1.2-.2.2-.4v-4.8c0-.1-.1-.3-.2-.4s-.3-.1-.4 0c-1.1.6-2.2.8-3.5.8-1.9 0-2.7-.9-2.7-2.8v-12.1h6.5c.2 0 .4-.2.4-.4v-5.1c.1-.2-.1-.4-.4-.4"/><path d="m214.4 29.2v-.8c0-2.4.9-3.5 3-3.5 1.2 0 2.2.2 3.3.6.1 0 .3 0 .4-.1s.2-.2.2-.4v-5c0-.2-.1-.4-.3-.4-1.2-.3-2.7-.7-4.9-.7-5.4 0-8.3 3.1-8.3 8.9v1.2h-2.8c-.2 0-.4.2-.4.4v5.1c0 .2.2.4.4.4h2.8v20.2c0 .2.2.4.4.4h5.9c.2 0 .4-.2.4-.4v-20h5.5l8.4 20.2c-1 2.1-1.9 2.5-3.2 2.5-1 0-2.1-.3-3.2-.9-.1-.1-.2-.1-.3 0-.1 0-.2.1-.3.2l-2 4.4c-.1.2 0 .4.2.6 2.1 1.1 4 1.6 6.3 1.6 4.4 0 6.8-2 8.9-7.5l10.2-26.4c.1-.1 0-.3 0-.4-.1-.1-.2-.2-.4-.2h-6.1c-.2 0-.3.1-.4.3l-6.3 18-6.9-18c-.1-.2-.2-.3-.4-.3z"/><path d="m201.3 29.2h-5.9c-.2 0-.4.2-.4.4v25.7c0 .2.2.4.4.4h5.9c.2 0 .4-.2.4-.4v-25.7c.1-.2-.1-.4-.4-.4"/><path d="m198.4 17.5c-2.3 0-4.2 1.9-4.2 4.2s1.9 4.2 4.2 4.2 4.2-1.9 4.2-4.2-1.9-4.2-4.2-4.2"/></g><g transform="matrix(2.0986059 0 0 2.0986059 849.21855 611.59509)"><path d="m245.2 55.8c-2.3 0-4.1-1.9-4.1-4.1 0-2.3 1.8-4.2 4.2-4.2 2.3 0 4.1 1.9 4.1 4.1 0 2.3-1.8 4.2-4.2 4.2m.1-7.9c-2.1 0-3.7 1.7-3.7 3.8s1.6 3.7 3.7 3.7 3.7-1.7 3.7-3.8c0-2-1.6-3.7-3.7-3.7m.9 4.2 1.2 1.6h-1l-1.1-1.5h-.9v1.5h-.8v-4.4h1.9c1 0 1.7.5 1.7 1.4 0 .7-.4 1.2-1 1.4m-.7-2h-1.1v1.4h1.1c.5 0 .9-.3.9-.7-.1-.5-.4-.7-.9-.7"/><path d="m38.1 0c-21.1 0-38.1 17.1-38.1 38.1 0 21.1 17.1 38.1 38.1 38.1 21.1 0 38.1-17.1 38.1-38.1 0-21.1-17.1-38.1-38.1-38.1m17.5 55c-.7 1.1-2.1 1.5-3.3.8-9-5.5-20.2-6.7-33.5-3.7-1.3.3-2.6-.5-2.8-1.8-.3-1.3.5-2.6 1.8-2.8 14.5-3.3 27-1.9 37 4.2 1.1.7 1.5 2.1.8 3.3m4.6-10.4c-.9 1.4-2.7 1.8-4.1 1-10.2-6.3-25.9-8.1-38-4.4-1.6.5-3.2-.4-3.7-2s.4-3.2 2-3.7c13.8-4.2 31.1-2.2 42.8 5.1 1.5.8 1.9 2.6 1 4m.4-10.8c-12.3-7.3-32.6-8-44.3-4.4-1.9.6-3.9-.5-4.4-2.4-.6-1.9.5-3.9 2.4-4.4 13.5-4.1 35.9-3.3 50 5.1 1.7 1 2.3 3.2 1.2 4.9-1 1.6-3.2 2.2-4.9 1.2"/><path d="m103.7 35.2c-6.6-1.6-7.8-2.7-7.8-5 0-2.2 2.1-3.7 5.1-3.7s5.9 1.1 9 3.4c.1.1.2.1.3.1s.2-.1.3-.2l3.2-4.5c.1-.2.1-.4-.1-.6-3.7-2.9-7.8-4.4-12.6-4.4-7.1 0-12.1 4.3-12.1 10.4 0 6.5 4.3 8.9 11.7 10.7 6.3 1.5 7.4 2.7 7.4 4.8 0 2.4-2.2 3.9-5.6 3.9-3.8 0-7-1.3-10.5-4.3-.1-.1-.2-.1-.3-.1s-.2.1-.3.2l-3.6 4.3c-.2.2-.1.4 0 .6 4.1 3.6 9.1 5.6 14.5 5.6 7.7 0 12.6-4.2 12.6-10.7.1-5.6-3.2-8.6-11.2-10.5"/><path d="m132.3 28.7c-3.3 0-6 1.3-8.3 4v-3c0-.2-.2-.4-.4-.4h-5.9c-.2 0-.4.2-.4.4v33.5c0 .2.2.4.4.4h5.9c.2 0 .4-.2.4-.4v-10.6c2.2 2.5 5 3.8 8.3 3.8 6.2 0 12.4-4.7 12.4-13.8 0-9.2-6.2-13.9-12.4-13.9m5.6 13.8c0 4.6-2.8 7.8-6.9 7.8-4 0-7.1-3.4-7.1-7.8 0-4.5 3-7.8 7.1-7.8 4 0 6.9 3.3 6.9 7.8"/><path d="m160.7 28.7c-7.9 0-14.2 6.1-14.2 13.9 0 7.7 6.2 13.8 14.1 13.8 8 0 14.2-6.1 14.2-13.9.1-7.7-6.1-13.8-14.1-13.8m0 21.7c-4.2 0-7.4-3.4-7.4-7.9s3.1-7.8 7.3-7.8c4.3 0 7.5 3.4 7.5 7.9s-3.1 7.8-7.4 7.8"/><path d="m191.8 29.2h-6.5v-6.6c0-.2-.2-.4-.4-.4h-5.9c-.2 0-.4.2-.4.4v6.6h-2.8c-.2 0-.4.2-.4.4v5.1c0 .2.2.4.4.4h2.8v13.1c0 5.3 2.6 8 7.8 8 2.1 0 3.9-.4 5.5-1.4.1-.1.2-.2.2-.4v-4.8c0-.1-.1-.3-.2-.4s-.3-.1-.4 0c-1.1.6-2.2.8-3.5.8-1.9 0-2.7-.9-2.7-2.8v-12.1h6.5c.2 0 .4-.2.4-.4v-5.1c.1-.2-.1-.4-.4-.4"/><path d="m214.4 29.2v-.8c0-2.4.9-3.5 3-3.5 1.2 0 2.2.2 3.3.6.1 0 .3 0 .4-.1s.2-.2.2-.4v-5c0-.2-.1-.4-.3-.4-1.2-.3-2.7-.7-4.9-.7-5.4 0-8.3 3.1-8.3 8.9v1.2h-2.8c-.2 0-.4.2-.4.4v5.1c0 .2.2.4.4.4h2.8v20.2c0 .2.2.4.4.4h5.9c.2 0 .4-.2.4-.4v-20h5.5l8.4 20.2c-1 2.1-1.9 2.5-3.2 2.5-1 0-2.1-.3-3.2-.9-.1-.1-.2-.1-.3 0-.1 0-.2.1-.3.2l-2 4.4c-.1.2 0 .4.2.6 2.1 1.1 4 1.6 6.3 1.6 4.4 0 6.8-2 8.9-7.5l10.2-26.4c.1-.1 0-.3 0-.4-.1-.1-.2-.2-.4-.2h-6.1c-.2 0-.3.1-.4.3l-6.3 18-6.9-18c-.1-.2-.2-.3-.4-.3z"/><path d="m201.3 29.2h-5.9c-.2 0-.4.2-.4.4v25.7c0 .2.2.4.4.4h5.9c.2 0 .4-.2.4-.4v-25.7c.1-.2-.1-.4-.4-.4"/><path d="m198.4 17.5c-2.3 0-4.2 1.9-4.2 4.2s1.9 4.2 4.2 4.2 4.2-1.9 4.2-4.2-1.9-4.2-4.2-4.2"/></g></svg>